<svg width="20" height="21" viewBox="0 0 20 21" fill="none" xmlns="http://www.w3.org/2000/svg">
<path d="M10.6251 7.99996C10.6251 7.65478 10.3453 7.37496 10.0001 7.37496C9.6549 7.37496 9.37508 7.65478 9.37508 7.99996L9.37508 9.87498H7.50008C7.1549 9.87498 6.87508 10.1548 6.87508 10.5C6.87508 10.8452 7.1549 11.125 7.50008 11.125H9.37508V13C9.37508 13.3451 9.6549 13.625 10.0001 13.625C10.3453 13.625 10.6251 13.3451 10.6251 13L10.6251 11.125H12.5001C12.8453 11.125 13.1251 10.8452 13.1251 10.5C13.1251 10.1548 12.8453 9.87498 12.5001 9.87498H10.6251V7.99996Z" fill="white"/>
<path fill-rule="evenodd" clip-rule="evenodd" d="M10.0001 1.54163C5.05253 1.54163 1.04175 5.55241 1.04175 10.5C1.04175 15.4475 5.05253 19.4583 10.0001 19.4583C14.9476 19.4583 18.9584 15.4475 18.9584 10.5C18.9584 5.55241 14.9476 1.54163 10.0001 1.54163ZM2.29175 10.5C2.29175 6.24276 5.74289 2.79163 10.0001 2.79163C14.2573 2.79163 17.7084 6.24276 17.7084 10.5C17.7084 14.7572 14.2573 18.2083 10.0001 18.2083C5.74289 18.2083 2.29175 14.7572 2.29175 10.5Z" fill="white"/>
</svg>
