<svg width="20" height="21" viewBox="0 0 20 21" fill="none" xmlns="http://www.w3.org/2000/svg">
<path d="M8.14167 5.25859H3.14167C2.79649 5.25859 2.51667 5.53842 2.51667 5.88359C2.51667 6.22877 2.79649 6.50859 3.14167 6.50859H8.14167C8.48685 6.50859 8.76667 6.22877 8.76667 5.88359C8.76667 5.53842 8.48685 5.25859 8.14167 5.25859Z" fill="#45446A"/>
<path fill-rule="evenodd" clip-rule="evenodd" d="M4.73333 11.4169H3.14167C2.79649 11.4169 2.51667 11.1371 2.51667 10.7919C2.51667 10.4467 2.79649 10.1669 3.14167 10.1669H4.73333C5.03736 9.31562 5.90987 8.80658 6.80057 8.96086C7.69127 9.11513 8.34175 9.88796 8.34175 10.7919C8.34175 11.6959 7.69127 12.4687 6.80057 12.623C5.90987 12.7773 5.03736 12.2682 4.73333 11.4169ZM6.475 11.4003C6.81098 11.4003 7.08334 11.1279 7.08334 10.7919C7.08334 10.456 6.81098 10.1836 6.475 10.1836C6.31366 10.1836 6.15893 10.2477 6.04485 10.3618C5.93076 10.4759 5.86667 10.6306 5.86667 10.7919C5.86667 11.1279 6.13903 11.4003 6.475 11.4003Z" fill="#45446A"/>
<path fill-rule="evenodd" clip-rule="evenodd" d="M12.9083 6.47526C12.6237 7.14766 11.9716 7.59106 11.2417 7.60859V7.55026C10.2753 7.55396 9.4674 6.81641 9.38327 5.85372C9.29915 4.89103 9.96688 4.02453 10.9192 3.86056C11.8716 3.69658 12.7907 4.28987 13.0333 5.22526C13.0693 5.22055 13.1057 5.22055 13.1417 5.22526H16.4333C16.7785 5.22526 17.0583 5.50508 17.0583 5.85026C17.0583 6.19544 16.7785 6.47526 16.4333 6.47526H13.1C13.0364 6.48319 12.972 6.48319 12.9083 6.47526ZM11.8531 5.6894C11.8383 5.36303 11.5684 5.10661 11.2417 5.10859V5.14193C11.0743 5.14383 10.9151 5.21461 10.8016 5.3376C10.688 5.4606 10.6302 5.62494 10.6417 5.79193C10.6819 6.11614 10.9711 6.35063 11.2967 6.32308C11.6222 6.29553 11.8678 6.01576 11.8531 5.6894Z" fill="#45446A"/>
<path d="M8.14167 15.3419H3.14167C2.78728 15.3419 2.5 15.6292 2.5 15.9836C2.5 16.338 2.78728 16.6253 3.14167 16.6253H8.14167C8.48684 16.6253 8.76667 16.3454 8.76667 16.0003C8.76667 15.6551 8.48684 15.3753 8.14167 15.3753V15.3419Z" fill="#45446A"/>
<path fill-rule="evenodd" clip-rule="evenodd" d="M13.25 15.3419H16.475V15.3753C16.8202 15.3753 17.1 15.6551 17.1 16.0003C17.1 16.3454 16.8202 16.6253 16.475 16.6253H13.1417C12.7604 17.4356 11.8535 17.8565 10.9885 17.6246C10.1236 17.3927 9.54889 16.5745 9.62422 15.6821C9.69955 14.7897 10.4032 14.0794 11.2949 13.9958C12.1865 13.9121 13.01 14.4791 13.25 15.3419ZM10.9071 16.0722C11.0039 16.2993 11.2282 16.4453 11.475 16.4419C11.8077 16.4374 12.075 16.1663 12.075 15.8336C12.075 15.5868 11.9258 15.3645 11.6975 15.2708C11.4692 15.1772 11.2069 15.2308 11.0336 15.4065C10.8603 15.5822 10.8103 15.8452 10.9071 16.0722Z" fill="#45446A"/>
<path d="M16.475 10.1669H9.80834C9.46316 10.1669 9.18334 10.4467 9.18334 10.7919C9.18334 11.1371 9.46316 11.4169 9.80834 11.4169H16.475C16.8202 11.4169 17.1 11.1371 17.1 10.7919C17.1 10.4467 16.8202 10.1669 16.475 10.1669Z" fill="#45446A"/>
</svg>
