<svg width="20" height="20" viewBox="0 0 20 20" fill="none" xmlns="http://www.w3.org/2000/svg">
<path fill-rule="evenodd" clip-rule="evenodd" d="M3.22498 2.5H6.14164C7.17718 2.5 8.01664 3.33947 8.01664 4.375V7.29167C8.01664 8.3272 7.17718 9.16667 6.14164 9.16667H3.22498C2.18944 9.16667 1.34998 8.3272 1.34998 7.29167V4.375C1.34998 3.33947 2.18944 2.5 3.22498 2.5ZM6.14164 7.91667C6.48682 7.91667 6.76664 7.63684 6.76664 7.29167V4.375C6.76664 4.02982 6.48682 3.75 6.14164 3.75H3.22498C2.88167 3.75449 2.60446 4.0317 2.59998 4.375V7.29167C2.60446 7.63497 2.88167 7.91218 3.22498 7.91667H6.14164Z" fill="black"/>
<path d="M11.35 5.625H15.5166C15.8618 5.625 16.1416 5.34518 16.1416 5C16.1416 4.65482 15.8618 4.375 15.5166 4.375H11.35C11.0048 4.375 10.725 4.65482 10.725 5C10.725 5.34518 11.0048 5.625 11.35 5.625Z" fill="black"/>
<path d="M11.35 8.125H18.0166C18.3618 8.125 18.6416 7.84518 18.6416 7.5C18.6416 7.15482 18.3618 6.875 18.0166 6.875H11.35C11.0048 6.875 10.725 7.15482 10.725 7.5C10.725 7.84518 11.0048 8.125 11.35 8.125Z" fill="black"/>
<path fill-rule="evenodd" clip-rule="evenodd" d="M3.22498 10.8333H6.14164C7.17718 10.8333 8.01664 11.6728 8.01664 12.7083V15.625C8.01664 16.1223 7.8191 16.5992 7.46747 16.9508C7.11584 17.3025 6.63892 17.5 6.14164 17.5H3.22498C2.18944 17.5 1.34998 16.6605 1.34998 15.625V12.7083C1.34998 11.6728 2.18944 10.8333 3.22498 10.8333ZM6.14164 16.25C6.48682 16.25 6.76664 15.9702 6.76664 15.625V12.7083C6.76664 12.3632 6.48682 12.0833 6.14164 12.0833H3.22498C2.88167 12.0878 2.60446 12.365 2.59998 12.7083V15.625C2.60446 15.9683 2.88167 16.2455 3.22498 16.25H6.14164Z" fill="black"/>
<path d="M11.35 13.9583H15.5166C15.8618 13.9583 16.1416 13.6785 16.1416 13.3333C16.1416 12.9882 15.8618 12.7083 15.5166 12.7083H11.35C11.0048 12.7083 10.725 12.9882 10.725 13.3333C10.725 13.6785 11.0048 13.9583 11.35 13.9583Z" fill="black"/>
<path d="M18.0166 15.2083H11.35C11.0048 15.2083 10.725 15.4882 10.725 15.8333C10.725 16.1785 11.0048 16.4583 11.35 16.4583H18.0166C18.3618 16.4583 18.6416 16.1785 18.6416 15.8333C18.6416 15.4882 18.3618 15.2083 18.0166 15.2083Z" fill="black"/>
</svg>
