<svg width="20" height="20" viewBox="0 0 20 20" fill="none" xmlns="http://www.w3.org/2000/svg">
<g id="Layout/grid-6">
<g id="Icon">
<path fill-rule="evenodd" clip-rule="evenodd" d="M4.375 2.5H7.29167C8.3272 2.5 9.16667 3.33947 9.16667 4.375V15.625C9.16667 16.6605 8.3272 17.5 7.29167 17.5H4.375C3.33947 17.5 2.5 16.6605 2.5 15.625V4.375C2.5 3.33947 3.33947 2.5 4.375 2.5ZM7.29167 16.25C7.63497 16.2455 7.91218 15.9683 7.91667 15.625V4.375C7.91218 4.0317 7.63497 3.75449 7.29167 3.75H4.375C4.0317 3.75449 3.75449 4.0317 3.75 4.375V15.625C3.75449 15.9683 4.0317 16.2455 4.375 16.25H7.29167Z" fill="#1D242D"/>
<path fill-rule="evenodd" clip-rule="evenodd" d="M12.7083 10.8333H15.625C16.6605 10.8333 17.5 11.6728 17.5 12.7083V15.625C17.5 16.6605 16.6605 17.5 15.625 17.5H12.7083C11.6728 17.5 10.8333 16.6605 10.8333 15.625V12.7083C10.8333 11.6728 11.6728 10.8333 12.7083 10.8333ZM15.625 16.25C15.9683 16.2455 16.2455 15.9683 16.25 15.625V12.7083C16.2455 12.365 15.9683 12.0878 15.625 12.0833H12.7083C12.365 12.0878 12.0878 12.365 12.0833 12.7083V15.625C12.0878 15.9683 12.365 16.2455 12.7083 16.25H15.625Z" fill="#1D242D"/>
<path fill-rule="evenodd" clip-rule="evenodd" d="M12.7083 2.5H15.625C16.6605 2.5 17.5 3.33947 17.5 4.375V7.29167C17.5 8.3272 16.6605 9.16667 15.625 9.16667H12.7083C11.6728 9.16667 10.8333 8.3272 10.8333 7.29167V4.375C10.8333 3.33947 11.6728 2.5 12.7083 2.5ZM15.625 7.91667C15.9683 7.91218 16.2455 7.63497 16.25 7.29167V4.375C16.2455 4.0317 15.9683 3.75449 15.625 3.75H12.7083C12.365 3.75449 12.0878 4.0317 12.0833 4.375V7.29167C12.0878 7.63497 12.365 7.91218 12.7083 7.91667H15.625Z" fill="#1D242D"/>
</g>
</g>
</svg>
